<svg width="156" height="156" viewBox="0 0 156 156" fill="none" xmlns="http://www.w3.org/2000/svg">
<g clip-path="url(#clip0)">
<path d="M39.661 103.119L25.9991 34.3729H153.356V92.5741C153.356 98.399 148.636 103.119 142.811 103.119H39.661Z" fill="#F0C419"/>
<path d="M58.1695 140.136C65.4709 140.136 71.3898 134.217 71.3898 126.915C71.3898 119.614 65.4709 113.695 58.1695 113.695C50.8681 113.695 44.9492 119.614 44.9492 126.915C44.9492 134.217 50.8681 140.136 58.1695 140.136Z" fill="white"/>
<path d="M58.1695 142.78C49.4203 142.78 42.3051 135.664 42.3051 126.915C42.3051 118.166 49.4203 111.051 58.1695 111.051C66.9187 111.051 74.0339 118.166 74.0339 126.915C74.0339 135.664 66.9187 142.78 58.1695 142.78ZM58.1695 116.339C52.3367 116.339 47.5932 121.082 47.5932 126.915C47.5932 132.748 52.3367 137.492 58.1695 137.492C64.0023 137.492 68.7458 132.748 68.7458 126.915C68.7458 121.082 64.0023 116.339 58.1695 116.339Z" fill="#556080"/>
<path d="M118.983 140.136C126.284 140.136 132.203 134.217 132.203 126.915C132.203 119.614 126.284 113.695 118.983 113.695C111.682 113.695 105.763 119.614 105.763 126.915C105.763 134.217 111.682 140.136 118.983 140.136Z" fill="white"/>
<path d="M118.983 142.78C110.234 142.78 103.119 135.664 103.119 126.915C103.119 118.166 110.234 111.051 118.983 111.051C127.732 111.051 134.847 118.166 134.847 126.915C134.847 135.664 127.732 142.78 118.983 142.78ZM118.983 116.339C113.15 116.339 108.407 121.082 108.407 126.915C108.407 132.748 113.15 137.492 118.983 137.492C124.816 137.492 129.559 132.748 129.559 126.915C129.559 121.082 124.816 116.339 118.983 116.339Z" fill="#556080"/>
<path d="M145.424 126.915H131.936C130.474 126.915 129.292 125.733 129.292 124.271C129.292 122.809 130.474 121.627 131.936 121.627H145.424C146.886 121.627 148.068 122.809 148.068 124.271C148.068 125.733 146.886 126.915 145.424 126.915Z" fill="#556080"/>
<path d="M106.03 126.915H71.1228C69.6607 126.915 68.4788 125.733 68.4788 124.271C68.4788 122.809 69.6607 121.627 71.1228 121.627H106.027C107.489 121.627 108.671 122.809 108.671 124.271C108.671 125.733 107.489 126.915 106.03 126.915Z" fill="#556080"/>
<path d="M25.9965 37.017C24.7273 37.017 23.6062 36.0995 23.3921 34.8065L21.5544 23.7966H15.8644C14.4022 23.7966 13.2203 22.6147 13.2203 21.1526C13.2203 19.6904 14.4022 18.5085 15.8644 18.5085H26.0388L28.6088 33.9393C28.8494 35.3803 27.8764 36.742 26.4354 36.9799C26.2847 37.0064 26.1419 37.017 25.9965 37.017Z" fill="#556080"/>
<path d="M87.2859 50.2373C88.7462 50.2373 89.93 49.0535 89.93 47.5932C89.93 46.1329 88.7462 44.9492 87.2859 44.9492C85.8256 44.9492 84.6418 46.1329 84.6418 47.5932C84.6418 49.0535 85.8256 50.2373 87.2859 50.2373Z" fill="white"/>
<path d="M95.2181 42.3051C96.6784 42.3051 97.8622 41.1213 97.8622 39.661C97.8622 38.2007 96.6784 37.0169 95.2181 37.0169C93.7578 37.0169 92.574 38.2007 92.574 39.661C92.574 41.1213 93.7578 42.3051 95.2181 42.3051Z" fill="white"/>
<path d="M95.2181 58.1695C96.6784 58.1695 97.8622 56.9857 97.8622 55.5254C97.8622 54.0651 96.6784 52.8813 95.2181 52.8813C93.7578 52.8813 92.574 54.0651 92.574 55.5254C92.574 56.9857 93.7578 58.1695 95.2181 58.1695Z" fill="white"/>
<path d="M103.15 50.2373C104.611 50.2373 105.794 49.0535 105.794 47.5932C105.794 46.1329 104.611 44.9492 103.15 44.9492C101.69 44.9492 100.506 46.1329 100.506 47.5932C100.506 49.0535 101.69 50.2373 103.15 50.2373Z" fill="white"/>
<path d="M71.4215 50.2373C72.8818 50.2373 74.0656 49.0535 74.0656 47.5932C74.0656 46.1329 72.8818 44.9492 71.4215 44.9492C69.9612 44.9492 68.7774 46.1329 68.7774 47.5932C68.7774 49.0535 69.9612 50.2373 71.4215 50.2373Z" fill="white"/>
<path d="M79.3537 42.3051C80.814 42.3051 81.9978 41.1213 81.9978 39.661C81.9978 38.2007 80.814 37.0169 79.3537 37.0169C77.8934 37.0169 76.7097 38.2007 76.7097 39.661C76.7097 41.1213 77.8934 42.3051 79.3537 42.3051Z" fill="white"/>
<path d="M79.3537 58.1695C80.814 58.1695 81.9978 56.9857 81.9978 55.5254C81.9978 54.0651 80.814 52.8813 79.3537 52.8813C77.8934 52.8813 76.7097 54.0651 76.7097 55.5254C76.7097 56.9857 77.8934 58.1695 79.3537 58.1695Z" fill="white"/>
<path d="M31.7605 42.3051C33.2208 42.3051 34.4046 41.1213 34.4046 39.661C34.4046 38.2007 33.2208 37.0169 31.7605 37.0169C30.3002 37.0169 29.1164 38.2007 29.1164 39.661C29.1164 41.1213 30.3002 42.3051 31.7605 42.3051Z" fill="white"/>
<path d="M31.7605 58.1695C33.2208 58.1695 34.4046 56.9857 34.4046 55.5254C34.4046 54.0651 33.2208 52.8813 31.7605 52.8813C30.3002 52.8813 29.1164 54.0651 29.1164 55.5254C29.1164 56.9857 30.3002 58.1695 31.7605 58.1695Z" fill="white"/>
<path d="M39.6927 50.2373C41.153 50.2373 42.3367 49.0535 42.3367 47.5932C42.3367 46.1329 41.153 44.9492 39.6927 44.9492C38.2324 44.9492 37.0486 46.1329 37.0486 47.5932C37.0486 49.0535 38.2324 50.2373 39.6927 50.2373Z" fill="white"/>
<path d="M55.5571 50.2373C57.0174 50.2373 58.2012 49.0535 58.2012 47.5932C58.2012 46.1329 57.0174 44.9492 55.5571 44.9492C54.0968 44.9492 52.913 46.1329 52.913 47.5932C52.913 49.0535 54.0968 50.2373 55.5571 50.2373Z" fill="white"/>
<path d="M47.6249 42.3051C49.0852 42.3051 50.269 41.1213 50.269 39.661C50.269 38.2007 49.0852 37.0169 47.6249 37.0169C46.1646 37.0169 44.9808 38.2007 44.9808 39.661C44.9808 41.1213 46.1646 42.3051 47.6249 42.3051Z" fill="white"/>
<path d="M63.4893 42.3051C64.9496 42.3051 66.1334 41.1213 66.1334 39.661C66.1334 38.2007 64.9496 37.0169 63.4893 37.0169C62.029 37.0169 60.8452 38.2007 60.8452 39.661C60.8452 41.1213 62.029 42.3051 63.4893 42.3051Z" fill="white"/>
<path d="M47.6249 58.1695C49.0852 58.1695 50.269 56.9857 50.269 55.5254C50.269 54.0651 49.0852 52.8813 47.6249 52.8813C46.1646 52.8813 44.9808 54.0651 44.9808 55.5254C44.9808 56.9857 46.1646 58.1695 47.6249 58.1695Z" fill="white"/>
<path d="M63.4893 58.1695C64.9496 58.1695 66.1334 56.9857 66.1334 55.5254C66.1334 54.0651 64.9496 52.8813 63.4893 52.8813C62.029 52.8813 60.8452 54.0651 60.8452 55.5254C60.8452 56.9857 62.029 58.1695 63.4893 58.1695Z" fill="white"/>
<path d="M150.744 50.2373C152.204 50.2373 153.388 49.0535 153.388 47.5932C153.388 46.1329 152.204 44.9492 150.744 44.9492C149.283 44.9492 148.099 46.1329 148.099 47.5932C148.099 49.0535 149.283 50.2373 150.744 50.2373Z" fill="white"/>
<path d="M111.083 42.3051C112.543 42.3051 113.727 41.1213 113.727 39.661C113.727 38.2007 112.543 37.0169 111.083 37.0169C109.622 37.0169 108.438 38.2007 108.438 39.661C108.438 41.1213 109.622 42.3051 111.083 42.3051Z" fill="white"/>
<path d="M111.083 58.1695C112.543 58.1695 113.727 56.9857 113.727 55.5254C113.727 54.0651 112.543 52.8813 111.083 52.8813C109.622 52.8813 108.438 54.0651 108.438 55.5254C108.438 56.9857 109.622 58.1695 111.083 58.1695Z" fill="white"/>
<path d="M119.015 50.2373C120.475 50.2373 121.659 49.0535 121.659 47.5932C121.659 46.1329 120.475 44.9492 119.015 44.9492C117.554 44.9492 116.371 46.1329 116.371 47.5932C116.371 49.0535 117.554 50.2373 119.015 50.2373Z" fill="white"/>
<path d="M134.879 50.2373C136.339 50.2373 137.523 49.0535 137.523 47.5932C137.523 46.1329 136.339 44.9492 134.879 44.9492C133.419 44.9492 132.235 46.1329 132.235 47.5932C132.235 49.0535 133.419 50.2373 134.879 50.2373Z" fill="white"/>
<path d="M87.2859 66.1017C88.7462 66.1017 89.93 64.9179 89.93 63.4576C89.93 61.9973 88.7462 60.8135 87.2859 60.8135C85.8256 60.8135 84.6418 61.9973 84.6418 63.4576C84.6418 64.9179 85.8256 66.1017 87.2859 66.1017Z" fill="white"/>
<path d="M103.15 66.1017C104.611 66.1017 105.794 64.9179 105.794 63.4576C105.794 61.9973 104.611 60.8135 103.15 60.8135C101.69 60.8135 100.506 61.9973 100.506 63.4576C100.506 64.9179 101.69 66.1017 103.15 66.1017Z" fill="white"/>
<path d="M71.4215 66.1017C72.8818 66.1017 74.0656 64.9179 74.0656 63.4576C74.0656 61.9973 72.8818 60.8135 71.4215 60.8135C69.9612 60.8135 68.7774 61.9973 68.7774 63.4576C68.7774 64.9179 69.9612 66.1017 71.4215 66.1017Z" fill="white"/>
<path d="M39.6927 66.1017C41.153 66.1017 42.3367 64.9179 42.3367 63.4576C42.3367 61.9973 41.153 60.8135 39.6927 60.8135C38.2324 60.8135 37.0486 61.9973 37.0486 63.4576C37.0486 64.9179 38.2324 66.1017 39.6927 66.1017Z" fill="white"/>
<path d="M55.5571 66.1017C57.0174 66.1017 58.2012 64.9179 58.2012 63.4576C58.2012 61.9973 57.0174 60.8135 55.5571 60.8135C54.0968 60.8135 52.913 61.9973 52.913 63.4576C52.913 64.9179 54.0968 66.1017 55.5571 66.1017Z" fill="white"/>
<path d="M150.744 66.1017C152.204 66.1017 153.388 64.9179 153.388 63.4576C153.388 61.9973 152.204 60.8135 150.744 60.8135C149.283 60.8135 148.099 61.9973 148.099 63.4576C148.099 64.9179 149.283 66.1017 150.744 66.1017Z" fill="white"/>
<path d="M119.015 66.1017C120.475 66.1017 121.659 64.9179 121.659 63.4576C121.659 61.9973 120.475 60.8135 119.015 60.8135C117.554 60.8135 116.371 61.9973 116.371 63.4576C116.371 64.9179 117.554 66.1017 119.015 66.1017Z" fill="white"/>
<path d="M134.879 66.1017C136.339 66.1017 137.523 64.9179 137.523 63.4576C137.523 61.9973 136.339 60.8135 134.879 60.8135C133.419 60.8135 132.235 61.9973 132.235 63.4576C132.235 64.9179 133.419 66.1017 134.879 66.1017Z" fill="white"/>
<path d="M126.947 42.3051C128.407 42.3051 129.591 41.1213 129.591 39.661C129.591 38.2007 128.407 37.0169 126.947 37.0169C125.487 37.0169 124.303 38.2007 124.303 39.661C124.303 41.1213 125.487 42.3051 126.947 42.3051Z" fill="white"/>
<path d="M142.811 42.3051C144.272 42.3051 145.455 41.1213 145.455 39.661C145.455 38.2007 144.272 37.0169 142.811 37.0169C141.351 37.0169 140.167 38.2007 140.167 39.661C140.167 41.1213 141.351 42.3051 142.811 42.3051Z" fill="white"/>
<path d="M126.947 58.1695C128.407 58.1695 129.591 56.9857 129.591 55.5254C129.591 54.0651 128.407 52.8813 126.947 52.8813C125.487 52.8813 124.303 54.0651 124.303 55.5254C124.303 56.9857 125.487 58.1695 126.947 58.1695Z" fill="white"/>
<path d="M142.811 58.1695C144.272 58.1695 145.455 56.9857 145.455 55.5254C145.455 54.0651 144.272 52.8813 142.811 52.8813C141.351 52.8813 140.167 54.0651 140.167 55.5254C140.167 56.9857 141.351 58.1695 142.811 58.1695Z" fill="white"/>
<path d="M87.2859 81.9661C88.7462 81.9661 89.93 80.7823 89.93 79.322C89.93 77.8618 88.7462 76.678 87.2859 76.678C85.8256 76.678 84.6418 77.8618 84.6418 79.322C84.6418 80.7823 85.8256 81.9661 87.2859 81.9661Z" fill="white"/>
<path d="M95.2181 74.0339C96.6784 74.0339 97.8622 72.8501 97.8622 71.3898C97.8622 69.9295 96.6784 68.7458 95.2181 68.7458C93.7578 68.7458 92.574 69.9295 92.574 71.3898C92.574 72.8501 93.7578 74.0339 95.2181 74.0339Z" fill="white"/>
<path d="M95.2181 89.8983C96.6784 89.8983 97.8622 88.7145 97.8622 87.2542C97.8622 85.794 96.6784 84.6102 95.2181 84.6102C93.7578 84.6102 92.574 85.794 92.574 87.2542C92.574 88.7145 93.7578 89.8983 95.2181 89.8983Z" fill="white"/>
<path d="M103.15 81.9661C104.611 81.9661 105.794 80.7823 105.794 79.322C105.794 77.8618 104.611 76.678 103.15 76.678C101.69 76.678 100.506 77.8618 100.506 79.322C100.506 80.7823 101.69 81.9661 103.15 81.9661Z" fill="white"/>
<path d="M71.4215 81.9661C72.8818 81.9661 74.0656 80.7823 74.0656 79.322C74.0656 77.8618 72.8818 76.678 71.4215 76.678C69.9612 76.678 68.7774 77.8618 68.7774 79.322C68.7774 80.7823 69.9612 81.9661 71.4215 81.9661Z" fill="white"/>
<path d="M79.3537 74.0339C80.814 74.0339 81.9978 72.8501 81.9978 71.3898C81.9978 69.9295 80.814 68.7458 79.3537 68.7458C77.8934 68.7458 76.7097 69.9295 76.7097 71.3898C76.7097 72.8501 77.8934 74.0339 79.3537 74.0339Z" fill="white"/>
<path d="M79.3537 89.8983C80.814 89.8983 81.9978 88.7145 81.9978 87.2542C81.9978 85.794 80.814 84.6102 79.3537 84.6102C77.8934 84.6102 76.7097 85.794 76.7097 87.2542C76.7097 88.7145 77.8934 89.8983 79.3537 89.8983Z" fill="white"/>
<path d="M39.6927 81.9661C41.153 81.9661 42.3367 80.7823 42.3367 79.322C42.3367 77.8618 41.153 76.678 39.6927 76.678C38.2324 76.678 37.0486 77.8618 37.0486 79.322C37.0486 80.7823 38.2324 81.9661 39.6927 81.9661Z" fill="white"/>
<path d="M55.5571 81.9661C57.0174 81.9661 58.2012 80.7823 58.2012 79.322C58.2012 77.8618 57.0174 76.678 55.5571 76.678C54.0968 76.678 52.913 77.8618 52.913 79.322C52.913 80.7823 54.0968 81.9661 55.5571 81.9661Z" fill="white"/>
<path d="M47.6249 74.0339C49.0852 74.0339 50.269 72.8501 50.269 71.3898C50.269 69.9295 49.0852 68.7458 47.6249 68.7458C46.1646 68.7458 44.9808 69.9295 44.9808 71.3898C44.9808 72.8501 46.1646 74.0339 47.6249 74.0339Z" fill="white"/>
<path d="M63.4893 74.0339C64.9496 74.0339 66.1334 72.8501 66.1334 71.3898C66.1334 69.9295 64.9496 68.7458 63.4893 68.7458C62.029 68.7458 60.8452 69.9295 60.8452 71.3898C60.8452 72.8501 62.029 74.0339 63.4893 74.0339Z" fill="white"/>
<path d="M47.6249 89.8983C49.0852 89.8983 50.269 88.7145 50.269 87.2542C50.269 85.794 49.0852 84.6102 47.6249 84.6102C46.1646 84.6102 44.9808 85.794 44.9808 87.2542C44.9808 88.7145 46.1646 89.8983 47.6249 89.8983Z" fill="white"/>
<path d="M63.4893 89.8983C64.9496 89.8983 66.1334 88.7145 66.1334 87.2542C66.1334 85.794 64.9496 84.6102 63.4893 84.6102C62.029 84.6102 60.8452 85.794 60.8452 87.2542C60.8452 88.7145 62.029 89.8983 63.4893 89.8983Z" fill="white"/>
<path d="M150.744 81.9661C152.204 81.9661 153.388 80.7823 153.388 79.322C153.388 77.8618 152.204 76.678 150.744 76.678C149.283 76.678 148.099 77.8618 148.099 79.322C148.099 80.7823 149.283 81.9661 150.744 81.9661Z" fill="white"/>
<path d="M111.083 74.0339C112.543 74.0339 113.727 72.8501 113.727 71.3898C113.727 69.9295 112.543 68.7458 111.083 68.7458C109.622 68.7458 108.438 69.9295 108.438 71.3898C108.438 72.8501 109.622 74.0339 111.083 74.0339Z" fill="white"/>
<path d="M111.083 89.8983C112.543 89.8983 113.727 88.7145 113.727 87.2542C113.727 85.794 112.543 84.6102 111.083 84.6102C109.622 84.6102 108.438 85.794 108.438 87.2542C108.438 88.7145 109.622 89.8983 111.083 89.8983Z" fill="white"/>
<path d="M119.015 81.9661C120.475 81.9661 121.659 80.7823 121.659 79.322C121.659 77.8618 120.475 76.678 119.015 76.678C117.554 76.678 116.371 77.8618 116.371 79.322C116.371 80.7823 117.554 81.9661 119.015 81.9661Z" fill="white"/>
<path d="M134.879 81.9661C136.339 81.9661 137.523 80.7823 137.523 79.322C137.523 77.8618 136.339 76.678 134.879 76.678C133.419 76.678 132.235 77.8618 132.235 79.322C132.235 80.7823 133.419 81.9661 134.879 81.9661Z" fill="white"/>
<path d="M87.2859 97.8305C88.7462 97.8305 89.93 96.6467 89.93 95.1864C89.93 93.7262 88.7462 92.5424 87.2859 92.5424C85.8256 92.5424 84.6418 93.7262 84.6418 95.1864C84.6418 96.6467 85.8256 97.8305 87.2859 97.8305Z" fill="white"/>
<path d="M103.15 97.8305C104.611 97.8305 105.794 96.6467 105.794 95.1864C105.794 93.7262 104.611 92.5424 103.15 92.5424C101.69 92.5424 100.506 93.7262 100.506 95.1864C100.506 96.6467 101.69 97.8305 103.15 97.8305Z" fill="white"/>
<path d="M71.4215 97.8305C72.8818 97.8305 74.0656 96.6467 74.0656 95.1864C74.0656 93.7262 72.8818 92.5424 71.4215 92.5424C69.9612 92.5424 68.7774 93.7262 68.7774 95.1864C68.7774 96.6467 69.9612 97.8305 71.4215 97.8305Z" fill="white"/>
<path d="M39.6927 97.8305C41.153 97.8305 42.3367 96.6467 42.3367 95.1864C42.3367 93.7262 41.153 92.5424 39.6927 92.5424C38.2324 92.5424 37.0486 93.7262 37.0486 95.1864C37.0486 96.6467 38.2324 97.8305 39.6927 97.8305Z" fill="white"/>
<path d="M55.5571 97.8305C57.0174 97.8305 58.2012 96.6467 58.2012 95.1864C58.2012 93.7262 57.0174 92.5424 55.5571 92.5424C54.0968 92.5424 52.913 93.7262 52.913 95.1864C52.913 96.6467 54.0968 97.8305 55.5571 97.8305Z" fill="white"/>
<path d="M150.744 97.8305C152.204 97.8305 153.388 96.6467 153.388 95.1864C153.388 93.7262 152.204 92.5424 150.744 92.5424C149.283 92.5424 148.099 93.7262 148.099 95.1864C148.099 96.6467 149.283 97.8305 150.744 97.8305Z" fill="white"/>
<path d="M119.015 97.8305C120.475 97.8305 121.659 96.6467 121.659 95.1864C121.659 93.7262 120.475 92.5424 119.015 92.5424C117.554 92.5424 116.371 93.7262 116.371 95.1864C116.371 96.6467 117.554 97.8305 119.015 97.8305Z" fill="white"/>
<path d="M134.879 97.8305C136.339 97.8305 137.523 96.6467 137.523 95.1864C137.523 93.7262 136.339 92.5424 134.879 92.5424C133.419 92.5424 132.235 93.7262 132.235 95.1864C132.235 96.6467 133.419 97.8305 134.879 97.8305Z" fill="white"/>
<path d="M126.947 74.0339C128.407 74.0339 129.591 72.8501 129.591 71.3898C129.591 69.9295 128.407 68.7458 126.947 68.7458C125.487 68.7458 124.303 69.9295 124.303 71.3898C124.303 72.8501 125.487 74.0339 126.947 74.0339Z" fill="white"/>
<path d="M142.811 74.0339C144.272 74.0339 145.455 72.8501 145.455 71.3898C145.455 69.9295 144.272 68.7458 142.811 68.7458C141.351 68.7458 140.167 69.9295 140.167 71.3898C140.167 72.8501 141.351 74.0339 142.811 74.0339Z" fill="white"/>
<path d="M126.947 89.8983C128.407 89.8983 129.591 88.7145 129.591 87.2542C129.591 85.794 128.407 84.6102 126.947 84.6102C125.487 84.6102 124.303 85.794 124.303 87.2542C124.303 88.7145 125.487 89.8983 126.947 89.8983Z" fill="white"/>
<path d="M142.811 89.8983C144.272 89.8983 145.455 88.7145 145.455 87.2542C145.455 85.794 144.272 84.6102 142.811 84.6102C141.351 84.6102 140.167 85.794 140.167 87.2542C140.167 88.7145 141.351 89.8983 142.811 89.8983Z" fill="white"/>
<path d="M45.2163 126.915H37.017C33.2994 126.915 29.7247 125.321 27.2154 122.547C24.7115 119.779 23.49 116.061 23.8628 112.346C24.537 105.689 30.5337 100.475 37.5141 100.475C38.9763 100.475 40.1582 101.656 40.1582 103.119C40.1582 104.581 38.9763 105.763 37.5141 105.763C33.2122 105.763 29.5264 108.888 29.1245 112.875C28.8944 115.136 29.611 117.312 31.1366 118.999C32.649 120.67 34.7907 121.627 37.017 121.627H45.2163C46.6784 121.627 47.8603 122.809 47.8603 124.271C47.8603 125.733 46.6758 126.915 45.2163 126.915Z" fill="#556080"/>
<path d="M7.9322 29.0847C12.313 29.0847 15.8644 25.5334 15.8644 21.1525C15.8644 16.7717 12.313 13.2203 7.9322 13.2203C3.55137 13.2203 0 16.7717 0 21.1525C0 25.5334 3.55137 29.0847 7.9322 29.0847Z" fill="#E64C3C"/>
<path d="M142.814 105.763H37.4903L22.776 31.7288H156V92.5768C156 99.8479 150.085 105.763 142.814 105.763ZM41.8318 100.475H142.811C147.169 100.475 150.712 96.9315 150.712 92.5768V37.017H29.2223L41.8318 100.475Z" fill="#556080"/>
</g>
<defs>
<clipPath id="clip0">
<rect width="156" height="156" fill="white"/>
</clipPath>
</defs>
</svg>
